<!--?xml version="1.0" encoding="utf-8"?-->
<!-- Generator: Adobe Illustrator 18.1.1, SVG Export Plug-In . SVG Version: 6.00 Build 0)  -->

<svg version="1.1" id="_x32_" xmlns="http://www.w3.org/2000/svg" xmlns:xlink="http://www.w3.org/1999/xlink" x="0px" y="0px" viewBox="0 0 512 512" style="width: 64px; height: 64px; opacity: 1;" xml:space="preserve">
<style type="text/css">
	.st0{fill:#4B4B4B;}
</style>
<g>
	<polygon class="st0" points="120.366,226.702 122.69,226.548 120.366,226.684 	" style="fill: rgb(255, 255, 255);"></polygon>
	<path class="st0" d="M475.544,120.696c-14.866-29.431-38.807-54.804-64.094-73.109c-12.652-9.153-25.656-16.53-38.188-21.694
		c-12.55-5.147-24.61-8.141-35.718-8.158c-1.347,0-2.711,0.035-4.1,0.146l-7.849,0.626l-0.24,7.875
		c-1.013,34.037-28.504,61.229-62.25,61.256c-33.738,0.017-61.272-27.15-62.327-61.187l-0.292-9.504l-9.453,1.046
		c-20.733,2.3-37.872,5.816-52.377,10.945C116.9,36.564,101.006,48.22,89.288,63.919c-11.752,15.698-19.498,34.903-27.03,58.261
		l-0.248,0.78l-0.051,0.386c-8.004,36.104-21.239,63.065-32.425,80.959c-5.601,8.964-10.688,15.646-14.325,20.038
		c-1.818,2.196-3.268,3.817-4.246,4.864l-1.089,1.141l-0.241,0.249l-0.034,0.034L0,239.938l111.016,45.858
		c-10.053,35.118-30.786,83.772-73.804,140.704l-6.279,8.295l9.239,4.804c0.686,0.292,106.529,55.379,239.667,55.457
		c27.261,0,55.663-2.325,84.519-7.943l5.027-0.979l1.621-4.864c26.935-80.778,35.547-141.475,37.666-181.054L512,293.472v-8.226
		C511.906,233.144,497.881,165.224,475.544,120.696z M409.236,282.57c0.009-1.114,0.034-2.281,0.034-3.345
		c0-21.686-2.034-32.974-2.127-33.48l-17.276,3.19l0.009,0.026c0.128,0.78,1.827,10.962,1.827,30.263
		c0,34.783-5.558,99.23-35.753,191.494c-25.888,4.684-51.459,6.768-76.112,6.768c-64.128,0.008-122.201-13.39-164.147-26.823
		c-20.973-6.708-37.914-13.416-49.572-18.426c-3.328-1.432-6.176-2.702-8.612-3.817c75.391-103.51,80.521-181.192,80.487-199.034
		c0-2.367-0.086-3.68-0.094-3.877l-17.533,1.202c0.008,0.103,0.06,0.994,0.06,2.676c-0.017,5.482-0.609,19.164-5.018,39.228
		l-85.025-35.118c12.722-15.844,36.448-51.124,48.698-106.203c4.82-14.994,9.641-27.724,15.208-38.326
		c8.458-16.024,18.246-27.209,33.206-35.805c13.442-7.686,31.558-13.167,56.64-16.589c5.782,38.772,38.816,68.614,78.977,68.632
		c40.48-0.06,73.694-30.375,79.054-69.593c7.06,0.67,15.415,2.814,24.413,6.528c16.556,6.802,35.041,18.528,51.734,33.522
		c16.71,14.994,31.636,33.256,41.552,52.942c19.506,38.49,33.086,100.44,34.441,148.424L409.236,282.57z" style="fill: rgb(255, 255, 255);"></path>
</g>
</svg>
